<?xml version="1.0" encoding="iso-8859-1"?>
<!-- Generator: Adobe Illustrator 24.1.2, SVG Export Plug-In . SVG Version: 6.00 Build 0)  -->
<svg version="1.1" id="Layer_2" xmlns="http://www.w3.org/2000/svg" xmlns:xlink="http://www.w3.org/1999/xlink" x="0px" y="0px"
	 viewBox="0 0 48 48" style="enable-background:new 0 0 48 48;" xml:space="preserve">
<radialGradient id="SVGID_1_" cx="23.8006" cy="27.1675" r="23.2951" gradientUnits="userSpaceOnUse">
	<stop  offset="0" style="stop-color:#FFCF54"/>
	<stop  offset="0.2609" style="stop-color:#FDCB4D"/>
	<stop  offset="0.6392" style="stop-color:#F7C13A"/>
	<stop  offset="1" style="stop-color:#F0B421"/>
</radialGradient>
<path style="fill:url(#SVGID_1_);" d="M44,23c0,2,0,7-3,7c-1.5,0-2.5-0.5-3-1v15H10V29c-0.5,0.5-1.5,1-3,1c-2.956,0-3-5-3-7
	c0-8,7-18,20-18S44,15,44,23z"/>
<linearGradient id="SVGID_2_" gradientUnits="userSpaceOnUse" x1="39.5" y1="28.6347" x2="39.5" y2="44.054">
	<stop  offset="0" style="stop-color:#C48F0C"/>
	<stop  offset="1" style="stop-color:#CD9713"/>
</linearGradient>
<path style="fill:url(#SVGID_2_);" d="M41,30v12c0,1.105-0.895,2-2,2h-1V29C38.5,29.5,39.5,30,41,30z"/>
<linearGradient id="SVGID_3_" gradientUnits="userSpaceOnUse" x1="8.5" y1="29.1657" x2="8.5" y2="44.2787">
	<stop  offset="0" style="stop-color:#C48F0C"/>
	<stop  offset="1" style="stop-color:#CD9713"/>
</linearGradient>
<path style="fill:url(#SVGID_3_);" d="M10,29v15H9c-1.105,0-2-0.895-2-2V30C8.5,30,9.5,29.5,10,29z"/>
<linearGradient id="SVGID_4_" gradientUnits="userSpaceOnUse" x1="23.0799" y1="7.513" x2="37.2482" y2="22.5817">
	<stop  offset="0" style="stop-color:#6D7479"/>
	<stop  offset="1" style="stop-color:#323538"/>
</linearGradient>
<circle style="fill:url(#SVGID_4_);" cx="32" cy="17" r="5"/>
<linearGradient id="SVGID_5_" gradientUnits="userSpaceOnUse" x1="32.0723" y1="11.6114" x2="35.941" y2="20.7938">
	<stop  offset="0" style="stop-color:#FCFCFC"/>
	<stop  offset="1" style="stop-color:#C3C9CD"/>
</linearGradient>
<path style="fill:url(#SVGID_5_);" d="M32,12c-0.688,0-1.342,0.14-1.939,0.391C30.037,12.593,30,12.791,30,13c0,2.761,2.239,5,5,5
	c0.688,0,1.342-0.14,1.939-0.391C36.963,17.407,37,17.209,37,17C37,14.239,34.761,12,32,12z"/>
<linearGradient id="SVGID_6_" gradientUnits="userSpaceOnUse" x1="7.0799" y1="7.513" x2="21.2482" y2="22.5817">
	<stop  offset="0" style="stop-color:#6D7479"/>
	<stop  offset="1" style="stop-color:#323538"/>
</linearGradient>
<circle style="fill:url(#SVGID_6_);" cx="16" cy="17" r="5"/>
<linearGradient id="SVGID_7_" gradientUnits="userSpaceOnUse" x1="16.0723" y1="11.6114" x2="19.941" y2="20.7938">
	<stop  offset="0" style="stop-color:#FCFCFC"/>
	<stop  offset="1" style="stop-color:#C3C9CD"/>
</linearGradient>
<path style="fill:url(#SVGID_7_);" d="M16,12c-0.688,0-1.342,0.14-1.939,0.391C14.037,12.593,14,12.791,14,13c0,2.761,2.239,5,5,5
	c0.688,0,1.342-0.14,1.939-0.391C20.963,17.407,21,17.209,21,17C21,14.239,18.761,12,16,12z"/>
<path style="fill:#881421;" d="M30,24c0,0-0.72,5.06-4.01,6.57c-0.02,0.01-0.04,0.02-0.06,0.03c-0.03,0.01-0.06,0.03-0.09,0.04
	C25.94,30.44,26,30.22,26,30c0-1.1-1.34-2-3-2c-1.24,0-2.3,0.5-2.75,1.21c-0.11-0.11-0.2-0.22-0.29-0.34C18.41,26.81,18,24,18,24
	s2.69,2,6,2S30,24,30,24z"/>
<path style="fill:#C94F60;" d="M26,30c0,0.22-0.06,0.44-0.16,0.64C25.29,30.86,24.68,31,24,31c-1.55,0-2.72-0.67-3.59-1.6
	c-0.06-0.06-0.11-0.12-0.16-0.19C20.7,28.5,21.76,28,23,28C24.66,28,26,28.9,26,30z"/>
<linearGradient id="SVGID_8_" gradientUnits="userSpaceOnUse" x1="24" y1="15.6595" x2="24" y2="33.1301">
	<stop  offset="0" style="stop-color:#F19A00"/>
	<stop  offset="1" style="stop-color:#EB8100"/>
</linearGradient>
<path style="fill:url(#SVGID_8_);" d="M24,16.005c-11.46,0.28-10.447,10.07-9.402,12.99c0.637,1.77,1.964,3,3.134,3
	c3.134,0,3.677-5.08,4.179-8c0.198-1.23,1.16-1.72,2.089-1.84c0.93,0.12,1.891,0.61,2.089,1.84c0.501,2.92,1.045,8,4.179,8
	c1.17,0,2.497-1.23,3.134-3C34.447,26.075,35.46,16.285,24,16.005z"/>
<linearGradient id="SVGID_9_" gradientUnits="userSpaceOnUse" x1="24" y1="19.7829" x2="24" y2="24.1004">
	<stop  offset="0" style="stop-color:#505559"/>
	<stop  offset="1" style="stop-color:#323538"/>
</linearGradient>
<ellipse style="fill:url(#SVGID_9_);" cx="24" cy="22" rx="4" ry="2"/>
</svg>