<?xml version="1.0" encoding="iso-8859-1"?>
<!-- Generator: Adobe Illustrator 25.2.1, SVG Export Plug-In . SVG Version: 6.00 Build 0)  -->
<svg version="1.1" xmlns="http://www.w3.org/2000/svg" xmlns:xlink="http://www.w3.org/1999/xlink" x="0px" y="0px"
	 viewBox="0 0 48 48" style="enable-background:new 0 0 48 48;" xml:space="preserve">
<g id="Ideal_Shapes">
</g>
<g id="Earrings">
</g>
<g id="Low_Speed">
</g>
<g id="High_Speed_1_">
</g>
<g id="Body">
</g>
<g id="Picking_Up">
</g>
<g id="Flour_in_Paper_Packaging">
</g>
<g id="People">
</g>
<g id="Ark_Survival_Evolved">
</g>
<g id="Depop">
</g>
<g id="Jisung__x28_NCT_x29_">
</g>
<g id="Butcher">
</g>
<g id="Coach">
</g>
<g id="Train_Station">
</g>
<g id="Puppy">
</g>
<g id="Virgin_Atlantic">
</g>
<g id="Southwest_Airlines">
</g>
<g id="United_Airlines">
</g>
<g id="Microsoft">
</g>
<g id="Microsoft_Teams">
</g>
<g id="Microsoft_Teams_New">
</g>
<g id="Kotlin">
</g>
<g id="Church">
</g>
<g id="Relax">
</g>
<g id="Friends">
</g>
<g id="Afraid">
</g>
<g id="Burning_House">
</g>
<g id="Dialing_Phone">
</g>
<g id="Chin">
</g>
<g id="Pie_Chart">
</g>
<g id="Rug">
</g>
<g id="Ear_Ache">
</g>
<g id="Sparkling_Water">
</g>
<g id="Attract_Customers">
</g>
<g id="Bury">
</g>
<g id="Travel_Agency">
</g>
<g id="Captain">
</g>
<g id="Tablecloth">
</g>
<g id="JavaScript">
</g>
<g id="Pour">
</g>
<g id="Locked_Inside">
</g>
<g id="Locked_Outside">
</g>
<g id="Apologise">
</g>
<g id="Recorder">
</g>
<g id="Tin_Whistle">
</g>
<g id="Irish_Music">
</g>
<g id="EventIdea">
</g>
<g id="Circled_2">
</g>
<g id="Circled_3">
</g>
<g id="Circled_4">
</g>
<g id="Circled_5">
</g>
<g id="Cloud_Firestore">
</g>
<g id="Firebase_ML">
</g>
<g id="Cloud_Functions">
</g>
<g id="Authentication">
</g>
<g id="Hosting">
</g>
<g id="Cloud_Storage">
</g>
<g id="Realtime_Database">
</g>
<g id="Crashlytics">
</g>
<g id="Performance_Monitoring">
</g>
<g id="Test_Lab">
</g>
<g id="App_Distribution">
</g>
<g id="In-App_Messaging">
</g>
<g id="Google_Analytics">
</g>
<g id="Predictions">
</g>
<g id="AB_Testing">
</g>
<g id="Cloud_Messaging">
</g>
<g id="Remote_Config">
</g>
<g id="Dynamic_Links">
</g>
<g id="Resize_Images">
</g>
<g id="Translate_Text">
</g>
<g id="Sync_with_Mailchimp">
</g>
<g id="Trigger_Email">
</g>
<g id="Export_Collections">
</g>
<g id="Shorten_URLs">
</g>
<g id="Distributed_Counter">
</g>
<g id="Limit_Child_Nodes">
</g>
<g id="Delete_User_Data">
</g>
<g id="Green_Tea">
</g>
<g id="Add_Mail">
</g>
<g id="User_Male">
</g>
<g id="Coins_Button">
</g>
<g id="Db_2">
</g>
<g id="Paint_Brush">
</g>
<g id="Clown">
</g>
<g id="Son_Goku">
</g>
<g id="Growing_Plant">
</g>
<g id="Prepositions_Under">
</g>
<g id="Prepositions_Through">
</g>
<g id="Prepositions_Behind">
</g>
<g id="Prepositions_Over">
</g>
<g id="Prepositions_On">
</g>
<g id="Prepositions_In">
</g>
<g id="Prepositions_Between">
</g>
<g id="Prepositions_Next_To">
</g>
<g id="Prepositions_In_Front_On">
</g>
<g id="Prepositions_Around">
</g>
<g id="Boastful">
</g>
<g id="Origin">
</g>
<g id="Spongebob_Squarepants">
</g>
<g id="Squidward_Tentacles">
</g>
<g id="Patrick_Star">
</g>
<g id="Plankton">
</g>
<g id="Sandy_Cheeks">
</g>
<g id="Mr._Krabs">
</g>
<g id="Gary_the_Snail">
</g>
<g id="_x37_-Zip">
</g>
<g id="IMovie">
</g>
<g id="Webtoon">
</g>
<g id="Instagram">
</g>
<g id="White_Beans">
</g>
<g id="Piano">
</g>
<g id="Spongebob_Squarepants_1_">
</g>
<g id="Star_Stable">
</g>
<g id="Microphone">
</g>
<g id="A2Z">
</g>
<g id="Malwarebytes">
</g>
<g id="FL_Studio_20">
</g>
<g id="Tanjirou_Kamado">
</g>
<g id="Fashion_Model">
</g>
<g id="Google_Classroom">
</g>
<g id="Robolox_Studio">
</g>
<g id="No_Plastic">
</g>
<g id="Animal_Crossing">
</g>
<g id="Assassins_Creed_Logo">
</g>
<g id="Flo">
</g>
<g id="Icons8">
</g>
<g id="Weekend">
</g>
<g id="Tempo">
</g>
<g id="Funimation">
</g>
<g id="Medal_First_Place">
</g>
<g id="_x31_000">
</g>
<g id="_x31_00">
</g>
<g id="_x39_9">
</g>
<g id="_x39_0">
</g>
<g id="Friends_1_">
</g>
<g id="Listening">
</g>
<g id="Opposite_Opinion">
</g>
<g id="Ringing_Phone">
</g>
<g id="Talk">
</g>
<g id="Critical_Thinking">
</g>
<g id="Smoking">
</g>
<g id="Headache">
</g>
<g id="Clinic">
</g>
<g id="Photocopier">
</g>
<g id="Lose">
</g>
<g id="Slither_Io">
</g>
<g id="Pocket_Money">
</g>
<g id="Phasmophobia">
</g>
<g id="Yelp">
</g>
<g id="Tether">
</g>
<g id="Terraria">
</g>
<g id="Aleph">
</g>
<g id="Apple_Music">
</g>
<g id="Socratic">
</g>
<g id="Breakout_Rooms">
</g>
<g id="Instagram_Reel">
</g>
<g id="Yahoo">
</g>
<g id="Luigi">
	<g>
		<linearGradient id="SVGID_1_" gradientUnits="userSpaceOnUse" x1="24" y1="3.1838" x2="24" y2="25.716">
			<stop  offset="0" style="stop-color:#21AD64"/>
			<stop  offset="1" style="stop-color:#088242"/>
		</linearGradient>
		<path style="fill:url(#SVGID_1_);" d="M9,21.419C9,12.71,15.716,4,24,4s15,8.71,15,17.419C39,28.367,32,34,24,34
			S9,28.367,9,21.419z"/>
		<g>
			<linearGradient id="SVGID_2_" gradientUnits="userSpaceOnUse" x1="35.3645" y1="30.8298" x2="38.4914" y2="31.2412">
				<stop  offset="0" style="stop-color:#C48F0C"/>
				<stop  offset="0.251" style="stop-color:#D19B16"/>
				<stop  offset="0.619" style="stop-color:#DCA51F"/>
				<stop  offset="1" style="stop-color:#E0A922"/>
			</linearGradient>
			<path style="fill:url(#SVGID_2_);" d="M31.28,27.516l0.271-0.317C32.947,25.576,34.821,25,36,25c1.491,0,3,1.374,3,4
				c0,3.419-2.472,7-5,7l-4.42,0.003L31.28,27.516z"/>
		</g>
		<g>
			<linearGradient id="SVGID_3_" gradientUnits="userSpaceOnUse" x1="12.464" y1="30.6471" x2="9.0858" y2="30.8284">
				<stop  offset="0" style="stop-color:#C48F0C"/>
				<stop  offset="0.251" style="stop-color:#D19B16"/>
				<stop  offset="0.619" style="stop-color:#DCA51F"/>
				<stop  offset="1" style="stop-color:#E0A922"/>
			</linearGradient>
			<path style="fill:url(#SVGID_3_);" d="M18.421,36.003L14,36c-2.528,0-5-3.581-5-7c0-2.626,1.509-4,3-4
				c1.179,0,3.053,0.576,4.449,2.199l0.271,0.317L18.421,36.003z"/>
		</g>
		<path style="fill:#883515;" d="M16,33l-1.963,3l-0.36-0.937c-0.78-2.029-1.223-4.171-1.314-6.342L12,20l4-2V33z"/>
		<path style="fill:#883515;" d="M32,33l1.963,3l0.36-0.937c0.78-2.029,1.223-4.171,1.314-6.342L36,20l-4-2V33z"/>
		<radialGradient id="SVGID_4_" cx="23.717" cy="29.1984" r="16.0337" gradientUnits="userSpaceOnUse">
			<stop  offset="0" style="stop-color:#FFCF54"/>
			<stop  offset="0.261" style="stop-color:#FDCB4D"/>
			<stop  offset="0.639" style="stop-color:#F7C13A"/>
			<stop  offset="1" style="stop-color:#F0B421"/>
		</radialGradient>
		<path style="fill:url(#SVGID_4_);" d="M14,19l7.071-3h5.858L34,19c0,0-0.67,15.823-2,19.156C30.347,42.302,27.673,45,24,45
			c-3.819,0-6.557-2.916-8.192-7.342C14.606,34.403,14,19,14,19z"/>
		<ellipse style="fill:#FFFFFF;" cx="29" cy="26" rx="2" ry="3"/>
		<ellipse style="fill:#2196F3;" cx="28.5" cy="26.5" rx="1.5" ry="2.5"/>
		<linearGradient id="SVGID_5_" gradientUnits="userSpaceOnUse" x1="28.0005" y1="25.2076" x2="28.0005" y2="28.9106">
			<stop  offset="0" style="stop-color:#6D7479"/>
			<stop  offset="0.8012" style="stop-color:#323538"/>
		</linearGradient>
		<ellipse style="fill:url(#SVGID_5_);" cx="28" cy="27" rx="1" ry="2"/>
		<ellipse style="fill:#FFFFFF;" cx="19" cy="27" rx="2" ry="3"/>
		<ellipse style="fill:#FFFFFF;" cx="19" cy="26" rx="2" ry="3"/>
		<ellipse style="fill:#2196F3;" cx="19.5" cy="26.5" rx="1.5" ry="2.5"/>
		<linearGradient id="SVGID_6_" gradientUnits="userSpaceOnUse" x1="19.9995" y1="25.2076" x2="19.9995" y2="28.9106">
			<stop  offset="0" style="stop-color:#6D7479"/>
			<stop  offset="0.7797" style="stop-color:#323538"/>
		</linearGradient>
		<ellipse style="fill:url(#SVGID_6_);" cx="20" cy="27" rx="1" ry="2"/>
		<path style="fill:#FFFFFF;" d="M24,7c-2.76,0-5,2.24-5,5c0,1.51,0.67,2.86,1.73,3.78c0.88,0.76,5.44,0.85,6.27,0.22
			c1.22-0.91,2-2.36,2-4C29,9.24,26.76,7,24,7z M22.17,14L22,8.1L24,8l-0.406,3.709l2.868-0.397L26.5,13.99L22.17,14z"/>
		<path style="fill:#33C481;" d="M35.359,21.74c-1.859-1.212-3.699-2.208-5.596-2.88c-1.895-0.656-3.827-1.031-5.764-1.014
			c-1.937-0.021-3.87,0.354-5.765,1.009c-1.897,0.672-3.738,1.67-5.594,2.885l-0.02,0.013c-0.494,0.323-1.11,0.1-1.377-0.498
			c-0.203-0.456-0.143-1.001,0.115-1.376c1.492-2.155,3.448-3.88,5.629-5.057C19.167,13.623,21.583,13.025,24,13
			c2.417,0.02,4.833,0.619,7.013,1.817c2.182,1.176,4.138,2.903,5.628,5.062c0.36,0.522,0.303,1.298-0.128,1.734
			c-0.327,0.332-0.776,0.371-1.131,0.142L35.359,21.74z"/>
		<g>
			<linearGradient id="SVGID_7_" gradientUnits="userSpaceOnUse" x1="19" y1="17.7955" x2="19" y2="20.2913">
				<stop  offset="0" style="stop-color:#6D7479"/>
				<stop  offset="0.3198" style="stop-color:#595F63"/>
				<stop  offset="1" style="stop-color:#323538"/>
			</linearGradient>
			<path style="fill:url(#SVGID_7_);" d="M16,22c1.577-2.37,4.144-2.798,6-1.228c-0.093-2.456-1.979-2.97-3.433-2.713
				C17.113,18.317,16.031,19.402,16,22z"/>
			<linearGradient id="SVGID_8_" gradientUnits="userSpaceOnUse" x1="29" y1="17.8048" x2="29" y2="20.3932">
				<stop  offset="0" style="stop-color:#6D7479"/>
				<stop  offset="0.3198" style="stop-color:#595F63"/>
				<stop  offset="1" style="stop-color:#323538"/>
			</linearGradient>
			<path style="fill:url(#SVGID_8_);" d="M32,22c-1.577-2.37-4.144-2.798-6-1.228c0.093-2.456,1.979-2.97,3.433-2.713
				S31.969,19.402,32,22z"/>
		</g>
		<linearGradient id="SVGID_9_" gradientUnits="userSpaceOnUse" x1="24.0385" y1="31.4856" x2="23.9506" y2="40.502">
			<stop  offset="0.1852" style="stop-color:#6D7479"/>
			<stop  offset="0.4457" style="stop-color:#595F63"/>
			<stop  offset="1" style="stop-color:#323538"/>
		</linearGradient>
		<path style="fill:url(#SVGID_9_);" d="M33.04,32.33c-1.03,1.33-2.83,2.19-4.79,2.19c-0.88,0-1.7-0.17-2.44-0.48
			c-0.007-0.003-0.014-0.006-0.021-0.009c-1.154-0.49-2.425-0.49-3.579,0c-0.007,0.003-0.014,0.006-0.021,0.009
			c-0.74,0.31-1.56,0.48-2.44,0.48c-1.96,0-3.82-0.88-4.85-2.2c-0.65,0.89-0.9,1.98-0.9,3.12c0,3.07,2.69,5.56,6,5.56
			c1.54,0,2.94-0.53,4-1.42c1.06,0.89,2.46,1.42,4,1.42c3.31,0,6-2.49,6-5.56C34,34.3,33.69,33.22,33.04,32.33z"/>
		<radialGradient id="SVGID_10_" cx="24.2476" cy="27.4609" r="8.7705" gradientUnits="userSpaceOnUse">
			<stop  offset="0" style="stop-color:#FFE299"/>
			<stop  offset="0.213" style="stop-color:#FFE092"/>
			<stop  offset="0.522" style="stop-color:#FFDA7F"/>
			<stop  offset="0.889" style="stop-color:#FFD05F"/>
			<stop  offset="1" style="stop-color:#FFCD54"/>
		</radialGradient>
		<ellipse style="fill:url(#SVGID_10_);" cx="24" cy="32" rx="6" ry="5"/>
	</g>
</g>
<g id="Layer_162">
</g>
<g id="Layer_161">
</g>
<g id="CHECK">
</g>
</svg>