<?xml version="1.0" encoding="iso-8859-1"?>
<!-- Uploaded to: SVG Repo, www.svgrepo.com, Generator: SVG Repo Mixer Tools -->
<svg xmlns="http://www.w3.org/2000/svg" xmlns:xlink="http://www.w3.org/1999/xlink" version="1.1" id="Layer_1"  viewBox="0 0 427.727 427.727" xml:space="preserve" width="512" height="512">
<g>
	<g>
		<path style="fill:#997668;" d="M321.895,37.353c-58.45,0-105.833,47.382-105.833,105.832c0,46.141,12.144,93.348,12.144,93.348    l39.649,108.45c0-28.539-7.796-114.724,61.875-152.156c0,0,0,0,0.001-0.001c10.2,7.497,22.79,11.934,36.421,11.934    c34.007,0,61.575-27.568,61.575-61.575C427.727,84.735,380.344,37.353,321.895,37.353z"/>
		<path style="fill:#F5CFB2;" d="M358.174,43.736c-2.94-0.21-5.856-0.337-8.744-0.377c-31.876-0.423-59.652,9.508-80.209,28.755    c-25.666,24.032-38.86,61.185-38.158,107.439c0.652,42.938,12.931,92.145,36.537,146.616c-0.048-10.214,0.247-22.479,1.88-35.551    c-15.058-40.883-22.915-78.152-23.418-111.292c-0.638-41.912,10.917-75.199,33.412-96.262    c17.669-16.544,41.779-25.066,69.752-24.706c14.272,0.195,29.358,2.724,44.841,7.431    C383.798,56.209,371.626,48.645,358.174,43.736z"/>
		<path style="opacity:0.3;fill:#222222;" d="M274.022,266.705c-10.572-31.669-29.856-59.387-55.001-80.293    c3.595,28.386,9.185,50.121,9.185,50.121l39.649,108.45C267.855,329.832,265.658,298.431,274.022,266.705z"/>
	</g>
	<path style="fill:#997668;" d="M175.057,170.975v-0.002c-11.854-6.001-30.345-30.712-34.013-40.759   c-4.277-11.265-9.338-23.193-12.454-30.906c-0.66-1.861-1.387-3.718-2.164-5.553c-0.001-0.002-0.002-0.004-0.002-0.006v0   c-6.077-14.357-15.577-27.21-26.261-27.21c-11.665,0-21.918,15.316-27.844,31.188C32.103,99.376,0,132.486,0,173.107   c0,41.676,33.786,75.461,75.461,75.461c9.233,0,30.457,19.602,30.457,34.551c0,56.221,48.326,107.255,79.8,107.255h26.926   c30.247,0,59.955-28.654,59.955-67.696C272.599,255.288,232.603,197.244,175.057,170.975z"/>
	<path style="fill:#F5CFB2;" d="M77.355,248.8c9.947,2.238,28.563,20.318,28.563,34.319c0,45.435,31.561,87.475,60.283,101.937   c3.997-10.898,6.178-22.67,6.178-34.952C172.379,296.22,130.395,252.149,77.355,248.8z"/>
	<g>
		<path style="fill:#FF8189;" d="M88.379,111.462c0,7.418,5.276,13.432,11.784,13.432c6.507,0,11.783-6.014,11.783-13.432    c0-7.418-5.276-22.737-11.783-22.737C93.656,88.725,88.379,104.044,88.379,111.462z"/>
		<circle style="fill:#333E48;" cx="39.556" cy="154.062" r="8.742"/>
	</g>
	<path style="opacity:0.2;" d="M134.145,245.166c-6.046-6.294-16.049-6.497-22.345-0.451l-5.881,5.649v32.755   c0,1.64,0.045,3.275,0.125,4.906l24.409-17.961l1.735-1.275c0.521-0.389,1.025-0.815,1.507-1.278   C139.989,261.464,140.191,251.46,134.145,245.166z"/>
	<path style="fill:#B08876;" d="M137.564,236.773c-6.045-6.294-16.049-6.496-22.344-0.45l-26.445,25.399l-25.983-6.762   c-5.034-1.315-10.402,1.231-12.478,6.168c-2.276,5.412,0.267,11.646,5.679,13.921l1.625,0.683l30.254,12.722   c3.659,1.527,8.023,1.162,11.45-1.359l1.679-1.236l32.871-24.189l1.735-1.275c0.521-0.389,1.025-0.815,1.507-1.278   C143.409,253.072,143.61,243.068,137.564,236.773z"/>
	<g>
		<path style="fill:#997668;" d="M223.479,349.102l-100.51,4.774c-11.397,0-20.636,8.17-20.636,18.249    c0,10.079,9.238,18.249,20.636,18.249h100.51c11.398,0,20.638-9.239,20.638-20.636    C244.116,358.341,234.877,349.102,223.479,349.102z"/>
		<path style="opacity:0.3;fill:#222222;" d="M267.682,282.376c-13.368-19.241-35.617-31.847-60.822-31.847    c-40.883,0-74.026,33.143-74.026,74.026c0,28.675,16.315,53.524,40.159,65.818h39.651c30.247,0,59.955-53.872,59.955-67.696    C272.599,308.779,270.887,295.283,267.682,282.376z"/>
		<path style="fill:#B08876;" d="M212.577,242.321c-40.883,0-74.026,33.143-74.026,74.026c0,40.884,33.143,74.026,74.026,74.026    h20.399c29.618,0,53.628-24.01,53.628-53.628v-20.398C286.604,275.464,253.461,242.321,212.577,242.321z"/>
	</g>
</g>















</svg>