<?xml version="1.0" encoding="utf-8"?>
<!-- Uploaded to: SVG Repo, www.svgrepo.com, Generator: SVG Repo Mixer Tools -->
<svg width="800px" height="800px" viewBox="0 0 1024 1024" class="icon"  version="1.1" xmlns="http://www.w3.org/2000/svg"><path d="M447.934 684h136v179h-136z" fill="#2CC4FE" /><path d="M587.934 867h-144V680h144v187z m-136-8h128V688h-128v171z" fill="#515151" /><path d="M872.934 698.076h-724c-11.046 0-20-8.954-20-20v-472c0-11.046 8.954-20 20-20h724c11.046 0 20 8.954 20 20v472c0 11.046-8.955 20-20 20z" fill="#2CC4FE" /><path d="M872.934 702.076h-724c-13.234 0-24-10.766-24-24v-472c0-13.233 10.766-24 24-24h724c13.234 0 24 10.767 24 24v472c0 13.234-10.767 24-24 24z m-724-512c-8.822 0-16 7.178-16 16v472c0 8.822 7.178 16 16 16h724c8.822 0 16-7.178 16-16v-472c0-8.822-7.178-16-16-16h-724z" fill="#515151" /><path d="M889 621H133V206.538c0-9.092 7.37-16.462 16.462-16.462h723.076c9.092 0 16.462 7.37 16.462 16.462V621z" fill="#A1E4FD" /><path d="M324 863h383" fill="#2CC4FE" /><path d="M707 867H324a4 4 0 0 1 0-8h383a4 4 0 0 1 0 8z" fill="#515151" /><path d="M177.248 350.183l86.995-86.996" fill="#2CC4FE" /><path d="M177.248 354.183a4 4 0 0 1-2.829-6.828l86.996-86.996a4 4 0 0 1 5.657 5.657l-86.996 86.996a3.991 3.991 0 0 1-2.828 1.171z" fill="#D7F9FF" /><path d="M177.248 420.679L329.37 268.557" fill="#2CC4FE" /><path d="M177.248 424.679a4 4 0 0 1-2.829-6.828l152.123-152.123a4 4 0 0 1 5.657 5.657L180.076 423.508a3.987 3.987 0 0 1-2.828 1.171z" fill="#D7F9FF" /></svg>