<?xml version="1.0" encoding="iso-8859-1"?>
<!-- Generator: Adobe Illustrator 24.1.0, SVG Export Plug-In . SVG Version: 6.00 Build 0)  -->
<svg version="1.1" id="Layer_1" xmlns="http://www.w3.org/2000/svg" xmlns:xlink="http://www.w3.org/1999/xlink" x="0px" y="0px"
	 viewBox="0 0 48 48" style="enable-background:new 0 0 48 48;" xml:space="preserve">
<linearGradient id="SVGID_1_" gradientUnits="userSpaceOnUse" x1="6" y1="41" x2="42" y2="41">
	<stop  offset="0" style="stop-color:#C8D3DE"/>
	<stop  offset="1" style="stop-color:#C8D3DE"/>
</linearGradient>
<path style="fill:url(#SVGID_1_);" d="M42,39H6v2c0,1.105,0.895,2,2,2h32c1.105,0,2-0.895,2-2V39z"/>
<linearGradient id="SVGID_2_" gradientUnits="userSpaceOnUse" x1="14.0947" y1="10.3375" x2="31.3851" y2="43.7871">
	<stop  offset="0" style="stop-color:#FCFCFC"/>
	<stop  offset="0.4953" style="stop-color:#F4F4F4"/>
	<stop  offset="0.9464" style="stop-color:#E8E8E8"/>
	<stop  offset="1" style="stop-color:#E8E8E8"/>
</linearGradient>
<path style="fill:url(#SVGID_2_);" d="M42,39H6V20L24,3l18,17V39z"/>
<path style="fill:#DE490D;" d="M13,25h10c0.552,0,1,0.448,1,1v17H12V26C12,25.448,12.448,25,13,25z"/>
<path style="opacity:0.05;" d="M24,4c-0.474,0-0.948,0.168-1.326,0.503l-5.359,4.811L6,20v5.39L24,9.428L42,25.39V20L30.685,9.314
	l-5.359-4.811C24.948,4.168,24.474,4,24,4z"/>
<path style="opacity:0.07;" d="M24,3c-0.474,0-0.948,0.167-1.326,0.5l-5.359,4.784L6,18.909v5.359L24,8.397l18,15.871v-5.359
	L30.685,8.284L25.326,3.5C24.948,3.167,24.474,3,24,3z"/>
<linearGradient id="SVGID_3_" gradientUnits="userSpaceOnUse" x1="24" y1="1.6837" x2="24" y2="23.6963">
	<stop  offset="0" style="stop-color:#D43A02"/>
	<stop  offset="1" style="stop-color:#B9360C"/>
</linearGradient>
<path style="fill:url(#SVGID_3_);" d="M44.495,19.507L25.326,2.503C24.948,2.168,24.474,2,24,2s-0.948,0.168-1.326,0.503
	L3.505,19.507c-0.42,0.374-0.449,1.02-0.064,1.43l1.636,1.745c0.369,0.394,0.984,0.424,1.39,0.067L24,7.428L41.533,22.75
	c0.405,0.356,1.021,0.327,1.39-0.067l1.636-1.745C44.944,20.527,44.915,19.881,44.495,19.507z"/>
<linearGradient id="SVGID_4_" gradientUnits="userSpaceOnUse" x1="28.0496" y1="25.0496" x2="35.6135" y2="32.6135">
	<stop  offset="0" style="stop-color:#33BEF0"/>
	<stop  offset="1" style="stop-color:#0A85D9"/>
</linearGradient>
<path style="fill:url(#SVGID_4_);" d="M29,25h6c0.552,0,1,0.448,1,1v6c0,0.552-0.448,1-1,1h-6c-0.552,0-1-0.448-1-1v-6
	C28,25.448,28.448,25,29,25z"/>
</svg>